<svg width="14" height="14" viewBox="0 0 14 14" fill="none" xmlns="http://www.w3.org/2000/svg">
<path d="M12.7647 0.52002H1.23534C1.04563 0.52002 0.86368 0.595383 0.729532 0.729532C0.595383 0.86368 0.52002 1.04563 0.52002 1.23534V12.7649C0.520067 12.9546 0.595452 13.1365 0.729596 13.2706C0.863739 13.4047 1.04566 13.48 1.23534 13.48H7.44228V8.46126H5.75334V6.50538H7.44228V5.06286C7.44228 3.38886 8.46468 2.47752 9.95796 2.47752C10.6733 2.47752 11.288 2.53062 11.4673 2.55456V4.30398L10.4315 4.30452C9.61938 4.30452 9.46224 4.69044 9.46224 5.25672V6.50556H11.399L11.1469 8.46144H9.46224V13.48H12.7649C12.9546 13.48 13.1365 13.4046 13.2706 13.2704C13.4047 13.1363 13.48 12.9544 13.48 12.7647V1.23534C13.48 1.04563 13.4047 0.86368 13.2705 0.729532C13.1364 0.595383 12.9544 0.52002 12.7647 0.52002Z" fill="white"/>
</svg>
