<svg width="14" height="14" viewBox="0 0 14 14" fill="none" xmlns="http://www.w3.org/2000/svg">
<path d="M12.52 0.52002H1.47669C0.948569 0.52002 0.519989 0.93852 0.519989 1.45386V12.5449C0.519989 13.061 0.948569 13.48 1.47669 13.48H12.52C13.0485 13.48 13.48 13.061 13.48 12.5449V1.45386C13.48 0.93852 13.0485 0.52002 12.52 0.52002ZM4.36371 11.5637H2.44059V5.37912H4.36371V11.5637ZM3.40215 4.53348C3.25577 4.53348 3.11082 4.50464 2.9756 4.4486C2.84037 4.39256 2.71751 4.31042 2.61404 4.20688C2.51056 4.10334 2.42851 3.98043 2.37256 3.84517C2.3166 3.7099 2.28785 3.56494 2.28795 3.41856C2.28795 3.12308 2.40533 2.8397 2.61426 2.63076C2.8232 2.42183 3.10658 2.30445 3.40206 2.30445C3.69754 2.30445 3.98092 2.42183 4.18985 2.63076C4.39879 2.8397 4.51617 3.12308 4.51617 3.41856C4.51617 3.7141 4.39883 3.99755 4.18993 4.20661C3.98104 4.41567 3.69769 4.53324 3.40215 4.53348ZM11.563 11.5637H9.64293V8.5563C9.64293 7.83882 9.62889 6.91632 8.64375 6.91632C7.64331 6.91632 7.49085 7.6977 7.49085 8.50428V11.5639H5.56935V5.37912H7.41345V6.22368H7.43973C7.69641 5.73768 8.32353 5.22486 9.25881 5.22486C11.2039 5.22486 11.5632 6.50538 11.5632 8.17128V11.5637H11.563Z" fill="white"/>
</svg>
