<svg width="14" height="14" viewBox="0 0 14 14" fill="none" xmlns="http://www.w3.org/2000/svg">
<path d="M6.13418 10.6705C6.0089 10.8476 5.89028 10.9349 5.77688 10.9349C5.70128 10.9349 5.65826 10.8906 5.64458 10.8028C5.63918 10.7846 5.63918 10.7157 5.63918 10.5832V8.28638H5.07434V10.7531C5.07434 10.9736 5.09306 11.1223 5.1242 11.2168C5.18054 11.3748 5.30618 11.4488 5.48834 11.4488C5.69606 11.4488 5.90954 11.3233 6.134 11.0656V11.406H6.69974V8.28656H6.13418V10.6705Z" fill="white"/>
<path d="M3.02145 7.80856H3.68637V11.4058H4.31493V7.80856H4.99209V7.21924H3.02145V7.80856Z" fill="white"/>
<path d="M6.87057 5.08112C7.05471 5.08112 7.14291 4.93532 7.14291 4.64354V3.3173C7.14291 3.02588 7.05471 2.88062 6.87057 2.88062C6.68625 2.88062 6.59787 3.02588 6.59787 3.3173V4.64354C6.59805 4.93514 6.68625 5.08112 6.87057 5.08112Z" fill="white"/>
<path d="M8.33812 8.2483C8.1304 8.2483 7.93672 8.36206 7.75438 8.5867V7.21924H7.189V11.4059H7.75438V11.1031C7.94302 11.3369 8.13724 11.4487 8.33812 11.4487C8.5633 11.4487 8.7145 11.3303 8.7901 11.0982C8.82772 10.9659 8.84698 10.7582 8.84698 10.4697V9.22749C8.84698 8.9323 8.82772 8.72602 8.7901 8.60056C8.71432 8.36674 8.5633 8.2483 8.33812 8.2483ZM8.28178 10.514C8.28178 10.7957 8.1988 10.9346 8.0359 10.9346C7.94302 10.9346 7.8487 10.8903 7.7542 10.7958V8.89432C7.8487 8.80126 7.94284 8.75698 8.0359 8.75698C8.19898 8.75698 8.28178 8.90134 8.28178 9.18268V10.514Z" fill="white"/>
<path d="M10.1383 8.24829C9.84993 8.24829 9.62457 8.35467 9.46149 8.56833C9.34125 8.72583 9.28671 8.96955 9.28671 9.30273V10.3957C9.28671 10.7269 9.34827 10.9733 9.46833 11.129C9.63159 11.342 9.85659 11.4485 10.1525 11.4485C10.4477 11.4485 10.6794 11.3367 10.836 11.1107C10.905 11.0091 10.9501 10.8932 10.9679 10.7717C10.9729 10.715 10.98 10.5894 10.98 10.4076V10.3248H10.4031C10.4031 10.5516 10.3961 10.677 10.3908 10.7078C10.3586 10.8588 10.2773 10.9344 10.1383 10.9344C9.94425 10.9344 9.84993 10.7904 9.84993 10.5017V9.94875H10.9801V9.30255C10.9801 8.96919 10.9234 8.72565 10.8052 8.56815C10.647 8.35449 10.422 8.24829 10.1383 8.24829ZM10.415 9.47841H9.84993V9.18987C9.84993 8.90151 9.94425 8.75715 10.1333 8.75715C10.3203 8.75715 10.415 8.90151 10.415 9.18987V9.47841Z" fill="white"/>
<path d="M12.22 0.52002H1.77999C1.08699 0.52002 0.519989 1.08702 0.519989 1.78002V12.22C0.519989 12.913 1.08699 13.48 1.77999 13.48H12.22C12.913 13.48 13.48 12.913 13.48 12.22V1.78002C13.48 1.08702 12.913 0.52002 12.22 0.52002ZM8.18439 2.40462H8.75373V4.72518C8.75373 4.85946 8.75373 4.92912 8.76075 4.94748C8.77335 5.03604 8.81799 5.08122 8.89467 5.08122C9.00879 5.08122 9.12885 4.99266 9.25539 4.81374V2.40462H9.82671V5.55642H9.25539V5.21262C9.02805 5.47344 8.81115 5.60016 8.60289 5.60016C8.41893 5.60016 8.29203 5.52546 8.23497 5.36562C8.20347 5.2704 8.18439 5.11938 8.18439 4.8969V2.40462ZM6.02673 3.43206C6.02673 3.09528 6.08415 2.84886 6.20565 2.68956C6.36369 2.47428 6.58617 2.36646 6.87057 2.36646C7.15677 2.36646 7.37889 2.47428 7.53711 2.68956C7.65663 2.84886 7.71441 3.09528 7.71441 3.43206V4.53636C7.71441 4.87116 7.65681 5.11956 7.53711 5.27778C7.37889 5.49252 7.15695 5.60034 6.87057 5.60034C6.58599 5.60034 6.36351 5.49252 6.20565 5.27778C6.08415 5.11956 6.02673 4.87116 6.02673 4.53636V3.43206ZM4.49925 1.32678L4.94907 2.98764L5.38089 1.32678H6.02133L5.25957 3.84354V5.55642H4.62597V3.84354C4.56873 3.5397 4.44201 3.0951 4.23897 2.50524C4.10541 2.11284 3.96627 1.71864 3.83289 1.32678H4.49925ZM11.5131 11.5933C11.399 12.0906 10.9918 12.4574 10.5022 12.512C9.34233 12.6416 8.16855 12.6423 6.99999 12.6416C5.83125 12.6423 4.65747 12.6416 3.49773 12.512C3.00795 12.4573 2.60151 12.0904 2.48721 11.5933C2.32431 10.8848 2.32431 10.1115 2.32431 9.3825C2.32431 8.65278 2.32611 7.88004 2.48919 7.17138C2.60331 6.67422 3.00993 6.30756 3.49971 6.25284C4.65945 6.12288 5.83323 6.12252 7.00197 6.12288C8.17053 6.12252 9.34431 6.12288 10.5042 6.25284C10.9936 6.30756 11.4006 6.67422 11.5149 7.17138C11.6778 7.88022 11.6769 8.65278 11.6769 9.3825C11.6771 10.1115 11.6762 10.8848 11.5131 11.5933Z" fill="white"/>
</svg>
